<?xml version="1.0" encoding="UTF-8" standalone="no"?>
<svg
   xmlns:dc="http://purl.org/dc/elements/1.1/"
   xmlns:cc="http://creativecommons.org/ns#"
   xmlns:rdf="http://www.w3.org/1999/02/22-rdf-syntax-ns#"
   xmlns:svg="http://www.w3.org/2000/svg"
   xmlns="http://www.w3.org/2000/svg"
   viewBox="0 0 282.052 189.744"
   height="189.744"
   width="282.052"
   xml:space="preserve"
   id="svg2"
   version="1.1"><metadata
     id="metadata8"><rdf:RDF><cc:Work
         rdf:about=""><dc:format>image/svg+xml</dc:format><dc:type
           rdf:resource="http://purl.org/dc/dcmitype/StillImage" /></cc:Work></rdf:RDF></metadata><defs
     id="defs6"><clipPath
       id="clipPath18"
       clipPathUnits="userSpaceOnUse"><path
         id="path16"
         d="m 114.904,117.486 0.158,0.083 z m -0.783,-0.424 c 0.259,0.144 0.52,0.285 0.783,0.424 v 0 c -0.263,-0.139 -0.524,-0.28 -0.783,-0.424 m -0.436,-0.247 c 0.145,0.083 0.29,0.165 0.436,0.247 v 0 c -0.146,-0.082 -0.291,-0.164 -0.436,-0.247 m 12.824,-13.133 c -5.31,-6.81 -8.003,-15.559 -11.331,-23.407 v 0 c 1.495,3.516 2.929,7.023 4.343,10.377 v 0 c 0.731,1.815 2.623,3.758 5.453,5.649 v 0 c 2.39,1.596 4.881,2.388 8.053,2.478 v 0 h 0.045 l 0.015,0.002 c 0.186,0.006 0.369,0.01 0.551,0.01 v 0 c 1.768,-0.002 3.352,-0.282 4.893,-0.84 v 0 c 1.837,-0.677 3.398,-1.556 4.783,-2.67 v 0 c 1.368,-1.105 2.501,-2.396 3.467,-3.974 v 0 c 0.967,-1.595 1.641,-3.243 2.056,-5.029 v 0 c 0.424,-2.018 0.653,-4.329 0.653,-6.933 v 0 c 0,-0.562 -0.012,-1.138 -0.032,-1.729 v 0 c -0.006,-0.148 -0.009,-0.292 -0.013,-0.437 v 0 c -0.005,-0.001 -0.007,-0.001 -0.01,-0.001 v 0 c -0.119,-3.484 -0.182,-6.862 -0.182,-10.119 v 0 l -0.002,-23.204 h 23.003 v 33.883 c 0,0.864 0.023,1.756 0.054,2.66 v 0 c 0.004,0.001 0.008,0.001 0.01,0.002 v 0 c 0.019,0.485 0.035,0.968 0.064,1.464 v 0 c 0.034,0.612 0.049,1.214 0.051,1.808 v 0 0.001 0.091 0.023 c 0,1.246 -0.072,2.478 -0.211,3.688 v 0 c -0.517,4.663 -1.834,9.068 -3.955,13.096 v 0 c -2.004,3.802 -5.993,8.594 -5.993,8.594 v 0 l -3.999,3.178 c -4.082,1.456 -7.777,2.076 -11.106,2.077 v 0 c -9.873,0 -16.54,-5.454 -20.66,-10.738 M 112.704,74.771 c 0.024,0 0.047,0.002 0.071,0.002 v 0 c 0.718,1.588 1.416,3.195 2.104,4.8 v 0 c -0.696,-1.615 -1.419,-3.218 -2.175,-4.802" /></clipPath><linearGradient
       id="linearGradient32"
       spreadMethod="pad"
       gradientTransform="matrix(59.728516,0,0,-59.728516,112.70459,80.711914)"
       gradientUnits="userSpaceOnUse"
       y2="0"
       x2="1"
       y1="0"
       x1="0"><stop
         id="stop24"
         offset="0"
         style="stop-opacity:1;stop-color:#72acdd" /><stop
         id="stop26"
         offset="0.340659"
         style="stop-opacity:1;stop-color:#5780bc" /><stop
         id="stop28"
         offset="0.4468523"
         style="stop-opacity:1;stop-color:#5780bc" /><stop
         id="stop30"
         offset="1"
         style="stop-opacity:1;stop-color:#72acdd" /></linearGradient><clipPath
       id="clipPath42"
       clipPathUnits="userSpaceOnUse"><path
         id="path40"
         d="m 70.373,122.035 c -2.44,-0.199 -4.571,-0.494 -6.465,-0.935 v 0 l -0.019,-0.003 -0.013,-0.003 -0.092,-0.026 c -3.882,-0.994 -7.423,-2.372 -10.567,-4.184 v 0 c -3.074,-1.771 -5.873,-3.964 -8.356,-6.545 v 0 c -2.729,-2.728 -5.082,-5.983 -7.052,-9.67 v 0 C 35.686,96.691 34.411,92.195 33.902,87.303 v 0 c -0.107,-0.969 -0.177,-1.937 -0.223,-2.898 v 0 c -0.005,0.002 -0.011,0.003 -0.018,0.005 v 0 C 33.637,83.815 33.62,83.224 33.619,82.634 v 0 c 0,-1.838 0.123,-3.635 0.378,-5.386 v 0 c 0.459,-3.159 1.233,-6.156 2.346,-8.96 v 0 c 1.083,-2.733 2.421,-5.265 4.026,-7.565 v 0 c 1.533,-2.2 3.208,-4.174 5.04,-5.895 v 0 c 1.926,-1.795 4.044,-3.429 6.336,-4.908 v 0 c -11.384,8.973 -3.913,21.654 6.027,31.968 v 0 c -0.066,0.589 -0.106,1.185 -0.106,1.79 v 0 c 0,8.837 7.164,16.001 16.001,16.001 v 0 c 1.145,0 2.258,-0.129 3.333,-0.361 v 0 22.806 l -4.462,0.028 c -0.687,-0.023 -1.411,-0.058 -2.165,-0.117" /></clipPath><linearGradient
       id="linearGradient56"
       spreadMethod="pad"
       gradientTransform="matrix(43.381348,0,0,-43.381348,33.618652,86.036133)"
       gradientUnits="userSpaceOnUse"
       y2="0"
       x2="1"
       y1="0"
       x1="0"><stop
         id="stop48"
         offset="0"
         style="stop-opacity:1;stop-color:#aadff2" /><stop
         id="stop50"
         offset="0.164835"
         style="stop-opacity:1;stop-color:#aadff2" /><stop
         id="stop52"
         offset="0.554945"
         style="stop-opacity:1;stop-color:#72acdd" /><stop
         id="stop54"
         offset="1"
         style="stop-opacity:1;stop-color:#72acdd" /></linearGradient><clipPath
       id="clipPath66"
       clipPathUnits="userSpaceOnUse"><path
         id="path64"
         d="M 112.532,116.128 C 104.069,110.849 99.448,102.864 95.231,94.121 v 0 C 94.396,92.389 89.754,78.056 87.739,76.059 v 0 C 85.031,71.068 79.745,67.677 73.667,67.677 v 0 c -8.837,0 -16.001,7.165 -16.001,16.001 v 0 c 0,2.251 0.469,4.392 1.309,6.336 v 0 c 0.609,1.416 2.358,4.915 5.587,6.814 v 0 c 2.586,1.793 5.72,2.851 9.105,2.851 v 0 c 0.713,0 1.411,-0.062 2.099,-0.153 v 0 C 36.431,107.479 27.498,45.921 69.545,43.804 v 0 c 24.294,-2.077 37.079,16.38 45.565,36.308 v 0 c 3.361,7.888 6.259,16.558 11.399,23.57 v 0 c 5.741,7.829 21.699,16.06 35.765,5.483 v 0 c -2.039,2.436 -8.493,7.498 -11.36,8.83 v 0 c -5.284,2.786 -11.227,4.117 -17.189,4.117 v 0 c -7.447,0 -14.925,-2.076 -21.193,-5.984" /></clipPath><linearGradient
       id="linearGradient80"
       spreadMethod="pad"
       gradientTransform="matrix(120.40039,0,0,-120.40039,41.874512,82.87793)"
       gradientUnits="userSpaceOnUse"
       y2="0"
       x2="1"
       y1="0"
       x1="0"><stop
         id="stop72"
         offset="0"
         style="stop-opacity:1;stop-color:#5780bc" /><stop
         id="stop74"
         offset="0.351648"
         style="stop-opacity:1;stop-color:#72acdd" /><stop
         id="stop76"
         offset="0.714286"
         style="stop-opacity:1;stop-color:#aadff2" /><stop
         id="stop78"
         offset="1"
         style="stop-opacity:1;stop-color:#72acdd" /></linearGradient></defs><g
     transform="matrix(1.3333333,0,0,-1.3333333,0,189.744)"
     id="g10"><g
       id="g12"><g
         clip-path="url(#clipPath18)"
         id="g14"><g
           id="g20"><g
             id="g22"><path
               id="path34"
               style="fill:url(#linearGradient32);stroke:none"
               d="m 114.904,117.486 0.158,0.083 z m -0.783,-0.424 c 0.259,0.144 0.52,0.285 0.783,0.424 v 0 c -0.263,-0.139 -0.524,-0.28 -0.783,-0.424 m -0.436,-0.247 c 0.145,0.083 0.29,0.165 0.436,0.247 v 0 c -0.146,-0.082 -0.291,-0.164 -0.436,-0.247 m 12.824,-13.133 c -5.31,-6.81 -8.003,-15.559 -11.331,-23.407 v 0 c 1.495,3.516 2.929,7.023 4.343,10.377 v 0 c 0.731,1.815 2.623,3.758 5.453,5.649 v 0 c 2.39,1.596 4.881,2.388 8.053,2.478 v 0 h 0.045 l 0.015,0.002 c 0.186,0.006 0.369,0.01 0.551,0.01 v 0 c 1.768,-0.002 3.352,-0.282 4.893,-0.84 v 0 c 1.837,-0.677 3.398,-1.556 4.783,-2.67 v 0 c 1.368,-1.105 2.501,-2.396 3.467,-3.974 v 0 c 0.967,-1.595 1.641,-3.243 2.056,-5.029 v 0 c 0.424,-2.018 0.653,-4.329 0.653,-6.933 v 0 c 0,-0.562 -0.012,-1.138 -0.032,-1.729 v 0 c -0.006,-0.148 -0.009,-0.292 -0.013,-0.437 v 0 c -0.005,-0.001 -0.007,-0.001 -0.01,-0.001 v 0 c -0.119,-3.484 -0.182,-6.862 -0.182,-10.119 v 0 l -0.002,-23.204 h 23.003 v 33.883 c 0,0.864 0.023,1.756 0.054,2.66 v 0 c 0.004,0.001 0.008,0.001 0.01,0.002 v 0 c 0.019,0.485 0.035,0.968 0.064,1.464 v 0 c 0.034,0.612 0.049,1.214 0.051,1.808 v 0 0.001 0.091 0.023 c 0,1.246 -0.072,2.478 -0.211,3.688 v 0 c -0.517,4.663 -1.834,9.068 -3.955,13.096 v 0 c -2.004,3.802 -5.993,8.594 -5.993,8.594 v 0 l -3.999,3.178 c -4.082,1.456 -7.777,2.076 -11.106,2.077 v 0 c -9.873,0 -16.54,-5.454 -20.66,-10.738 M 112.704,74.771 c 0.024,0 0.047,0.002 0.071,0.002 v 0 c 0.718,1.588 1.416,3.195 2.104,4.8 v 0 c -0.696,-1.615 -1.419,-3.218 -2.175,-4.802" /></g></g></g></g><g
       id="g36"><g
         clip-path="url(#clipPath42)"
         id="g38"><g
           id="g44"><g
             id="g46"><path
               id="path58"
               style="fill:url(#linearGradient56);stroke:none"
               d="m 70.373,122.035 c -2.44,-0.199 -4.571,-0.494 -6.465,-0.935 v 0 l -0.019,-0.003 -0.013,-0.003 -0.092,-0.026 c -3.882,-0.994 -7.423,-2.372 -10.567,-4.184 v 0 c -3.074,-1.771 -5.873,-3.964 -8.356,-6.545 v 0 c -2.729,-2.728 -5.082,-5.983 -7.052,-9.67 v 0 C 35.686,96.691 34.411,92.195 33.902,87.303 v 0 c -0.107,-0.969 -0.177,-1.937 -0.223,-2.898 v 0 c -0.005,0.002 -0.011,0.003 -0.018,0.005 v 0 C 33.637,83.815 33.62,83.224 33.619,82.634 v 0 c 0,-1.838 0.123,-3.635 0.378,-5.386 v 0 c 0.459,-3.159 1.233,-6.156 2.346,-8.96 v 0 c 1.083,-2.733 2.421,-5.265 4.026,-7.565 v 0 c 1.533,-2.2 3.208,-4.174 5.04,-5.895 v 0 c 1.926,-1.795 4.044,-3.429 6.336,-4.908 v 0 c -11.384,8.973 -3.913,21.654 6.027,31.968 v 0 c -0.066,0.589 -0.106,1.185 -0.106,1.79 v 0 c 0,8.837 7.164,16.001 16.001,16.001 v 0 c 1.145,0 2.258,-0.129 3.333,-0.361 v 0 22.806 l -4.462,0.028 c -0.687,-0.023 -1.411,-0.058 -2.165,-0.117" /></g></g></g></g><g
       id="g60"><g
         clip-path="url(#clipPath66)"
         id="g62"><g
           id="g68"><g
             id="g70"><path
               id="path82"
               style="fill:url(#linearGradient80);stroke:none"
               d="M 112.532,116.128 C 104.069,110.849 99.448,102.864 95.231,94.121 v 0 C 94.396,92.389 89.754,78.056 87.739,76.059 v 0 C 85.031,71.068 79.745,67.677 73.667,67.677 v 0 c -8.837,0 -16.001,7.165 -16.001,16.001 v 0 c 0,2.251 0.469,4.392 1.309,6.336 v 0 c 0.609,1.416 2.358,4.915 5.587,6.814 v 0 c 2.586,1.793 5.72,2.851 9.105,2.851 v 0 c 0.713,0 1.411,-0.062 2.099,-0.153 v 0 C 36.431,107.479 27.498,45.921 69.545,43.804 v 0 c 24.294,-2.077 37.079,16.38 45.565,36.308 v 0 c 3.361,7.888 6.259,16.558 11.399,23.57 v 0 c 5.741,7.829 21.699,16.06 35.765,5.483 v 0 c -2.039,2.436 -8.493,7.498 -11.36,8.83 v 0 c -5.284,2.786 -11.227,4.117 -17.189,4.117 v 0 c -7.447,0 -14.925,-2.076 -21.193,-5.984" /></g></g></g></g></g></svg>