<svg width="720px" height="119px" xmlns="http://www.w3.org/2000/svg" xmlns:xlink="http://www.w3.org/1999/xlink">
  <defs>
    <symbol>
      <path id="logo" x="0" y="0" width="140" height="79" d="M172.222 54.833c-.518-4.664-1.834-9.068-3.955-13.097-2.004-3.802-5.992-8.594-5.992-8.594-2.04-2.436-8.494-7.497-11.361-8.829-11.885-6.268-27.096-5.17-38.381 1.866-8.464 5.278-13.085 13.265-17.302 22.007-.834 1.732-5.477 16.065-7.492 18.062-2.708 4.991-7.995 8.381-14.073 8.381-8.231 0-15.004-6.219-15.895-14.212-.016-.14-.024-.282-.037-.422-.038-.451-.069-.905-.069-1.366 0-.56.029-1.113.086-1.658.007-.072.024-.141.032-.212.056-.476.124-.948.221-1.41.004-.021.011-.04.016-.061.222-1.038.542-2.04.953-2.993.188-.435.391-.862.615-1.276.004-.008.007-.014.011-.021 1.201-2.208 2.911-4.097 4.967-5.522.211-.146.433-.28.651-.417.168-.105.336-.21.509-.31.216-.124.436-.242.658-.356.199-.102.401-.198.605-.292.207-.096.413-.194.625-.281.396-.162.797-.312 1.208-.442.147-.047.3-.082.449-.125.313-.09.629-.174.95-.244.172-.038.347-.07.521-.103.324-.06.652-.11.982-.15.155-.019.31-.04.466-.054.486-.044.977-.075 1.475-.075.463 0 .917.035 1.369.076.206.02.412.04.616.065.454.059.906.125 1.348.22V20.184l-4.461-.028c-.688.023-1.412.059-2.166.118-2.44.198-4.571.493-6.465.935l-.019.003-.014.003-.092.025c-3.881.995-7.423 2.373-10.567 4.185-3.074 1.771-5.873 3.964-8.356 6.545-2.729 2.728-5.081 5.983-7.052 9.67-2.123 3.978-3.397 8.474-3.906 13.366-.107.969-.178 1.937-.224 2.898a.18879.18879 0 0 0-.018-.006c-.024.595-.042 1.187-.042 1.775 0 1.839.124 3.636.379 5.387.458 3.159 1.233 6.156 2.345 8.96 1.083 2.733 2.421 5.265 4.025 7.565 1.534 2.2 3.209 4.174 5.04 5.895 1.927 1.795 4.045 3.429 6.337 4.908-.07-.056-.131-.113-.2-.169 4.398 3.542 10.352 5.9 18 6.285 22.15 1.894 34.73-13.283 43.21-31.079-.018.037-.033.075-.051.111.023 0 .047-.001.07-.001.479-1.062.941-2.137 1.406-3.209.153-.346.305-.692.455-1.039.08-.185.163-.367.242-.552-.019.043-.039.085-.058.128.096-.223.194-.444.289-.667.034-.079.066-.161.1-.24 1.484-3.491 2.908-6.971 4.312-10.301.73-1.814 2.623-3.758 5.453-5.648 2.39-1.596 4.881-2.389 8.053-2.479h.045l.016-.002c.186-.006.369-.01.551-.01 1.768.002 3.352.282 4.893.841 1.838.677 3.398 1.556 4.783 2.669 1.368 1.105 2.501 2.396 3.467 3.975.967 1.595 1.641 3.242 2.057 5.029.424 2.018.652 4.329.652 6.933 0 .562-.012 1.138-.031 1.729-.006.147-.01.292-.014.438-.004.001-.007.001-.01.001-.119 3.484-.182 6.861-.182 10.119l-.002 23.203h23.002V64.57c0-.863.023-1.756.055-2.659.004-.001.008-.001.01-.002.02-.485.035-.969.064-1.465.033-.611.049-1.214.051-1.808v-.115c.003-1.246-.069-2.478-.208-3.688z"/>
    </symbol>
  </defs>
    <use xlink:href="#logo" x="0" y="0" fill="#353740" width="180px" height="100px"/>
    <use xlink:href="#logo" x="180" y="0" fill="#2b5d93" width="180px" height="100px"/>
    <use xlink:href="#logo" x="360" y="0" fill="rgba(0,0,0,0.05)" width="180px" height="100px"/>
    <use xlink:href="#logo" x="540" y="0" fill="rgba(0,0,0,0.1)" width="180px" height="100px"/>
</svg>