<?xml version="1.0" encoding="UTF-8"?>
<svg width="141px" height="80px" viewBox="0 0 141 80" version="1.1" xmlns="http://www.w3.org/2000/svg" xmlns:xlink="http://www.w3.org/1999/xlink">
    <!-- Generator: Sketch 47.1 (45422) - http://www.bohemiancoding.com/sketch -->
    <title>Logo White</title>
    <desc>Created with Sketch.</desc>
    <defs></defs>
    <g id="Symbols" stroke="none" stroke-width="1" fill="none" fill-rule="evenodd" fill-opacity="0.100000001">
        <g id="Logo-White" fill-rule="nonzero" fill="#000000">
            <path d="M140.964422,35.2670393 C140.437608,30.52368 139.099216,26.0447447 136.942126,21.94719 C134.904028,18.0804979 130.848171,13.2069606 130.848171,13.2069606 C128.773459,10.7295113 122.209643,5.58239695 119.29386,4.22773258 C107.206633,-2.14691928 91.7368135,-1.03023649 80.2597959,6.12548311 C71.6517785,11.4932898 66.9521508,19.616191 62.6633973,28.5069387 C61.8152066,30.2684092 57.0932046,44.8452894 55.0439187,46.8762689 C52.2898413,51.9521922 46.9128815,55.3998741 40.7314625,55.3998741 C32.3604096,55.3998741 25.472165,49.075056 24.5660044,40.9460527 C24.5497322,40.8036706 24.5415961,40.6592544 24.5283749,40.5168723 C24.4897283,40.0581984 24.4582008,39.5964734 24.4582008,39.1276294 C24.4582008,38.5581008 24.4876942,37.9956914 24.5456641,37.441418 C24.5527832,37.3681929 24.5700725,37.2980189 24.5782086,37.2258108 C24.6351615,36.7417115 24.7043185,36.2616803 24.802969,35.7918192 C24.807037,35.7704619 24.8141562,35.7511386 24.8192412,35.7297813 C25.0450186,34.6741194 25.3704635,33.6550701 25.7884568,32.6858545 C25.9796557,32.2434529 26.1861098,31.8091873 26.4139212,31.388143 C26.4179893,31.3800069 26.4210403,31.3739048 26.4251084,31.3667857 C27.6465437,29.1212159 29.3856399,27.200074 31.4766233,25.7508272 C31.6912136,25.602343 31.916991,25.466063 32.1387003,25.3267319 C32.3095589,25.2199453 32.4804174,25.1131586 32.6563611,25.0114571 C32.8760364,24.8853472 33.0997797,24.7653394 33.3255571,24.6493997 C33.5279432,24.5456641 33.7333803,24.4480306 33.9408514,24.3524312 C34.1513736,24.2547977 34.3608787,24.1551302 34.576486,24.0666499 C34.979224,23.9018934 35.3870471,23.7493411 35.8050404,23.6171291 C35.9545417,23.5693294 36.110145,23.5337339 36.2616803,23.4900022 C36.5800061,23.3984709 36.9013829,23.3130416 37.2278448,23.2418505 C37.4027715,23.2032039 37.5807491,23.1706594 37.7577098,23.1370979 C38.0872227,23.076077 38.4208038,23.0252262 38.7564188,22.9845456 C38.9140562,22.9652223 39.0716936,22.943865 39.2303479,22.9296268 C39.7246174,22.8848781 40.2239719,22.8533507 40.7304455,22.8533507 C41.2013236,22.8533507 41.6630485,22.8889462 42.1227394,22.9306438 C42.3322446,22.9509841 42.5417497,22.9713244 42.7492209,22.9967498 C43.2109458,23.0567537 43.6706367,23.1238767 44.1201575,23.2204932 L44.1201575,0.0284764282 L39.5832522,0 C38.8835457,0.0233913518 38.1472267,0.0600039023 37.3803971,0.120007805 C34.8988798,0.321376833 32.7316202,0.621396344 30.8053932,1.0709171 L30.78607,1.07396815 L30.7718317,1.0770192 L30.6782663,1.10244458 C26.73123,2.1143748 23.1289618,3.51582187 19.9314657,5.35865358 C16.8051607,7.15978767 13.9585349,9.39010221 11.4332859,12.0150187 C8.6578512,14.7894364 6.26583122,18.0998212 4.26129408,21.8495566 C2.10217061,25.8952434 0.806493128,30.4677442 0.288832343,35.442983 C0.180011707,36.4284708 0.107803621,37.4129416 0.0610209176,38.3902933 C0.0559358412,38.3882593 0.0498337494,38.3862252 0.0427146423,38.3841912 C0.0183062753,38.9893153 0,39.5913884 0,40.1893934 C0,42.0596845 0.126109896,43.887261 0.385448796,45.6680547 C0.851241801,48.8808061 1.63942865,51.9288009 2.77034966,54.7805118 C3.87177722,57.5600146 5.23254369,60.1350973 6.86383622,62.4742325 C8.42393768,64.7116661 10.1274383,66.7192543 11.9895933,68.4695376 C13.9493818,70.2950801 16.1034202,71.9568831 18.4344192,73.4610487 C18.3632281,73.4040958 18.3011902,73.346126 18.2310162,73.2891731 C22.7038494,76.8914413 28.7591585,79.2895633 36.5372914,79.6811142 C59.0641802,81.6073412 71.8582326,66.1721001 80.4825223,48.0732959 C80.464216,48.1109255 80.4489608,48.1495721 80.4306545,48.1861846 C80.4540459,48.1861846 80.4784542,48.1851676 80.5018456,48.1851676 C80.9889959,47.1050974 81.458857,46.0118059 81.9317691,44.9215655 C82.0873724,44.5696782 82.2419587,44.2177909 82.394511,43.8648866 C82.4758723,43.6767388 82.5602845,43.491642 82.6406287,43.3034942 C82.6213054,43.3472258 82.6009651,43.3899405 82.5816418,43.4336721 C82.6792753,43.2068777 82.7789428,42.9821174 82.8755593,42.7553229 C82.9101378,42.6749787 82.9426823,42.5915835 82.9772608,42.5112393 C84.4865115,38.9608389 85.9347413,35.4216257 87.3626307,32.0349647 C88.1050519,30.190099 90.0302619,28.2130213 92.9084151,26.2908624 C95.3390817,24.6677059 97.8724668,23.8612128 101.098439,23.7696814 L101.144205,23.7696814 L101.160477,23.7676474 C101.349642,23.7615453 101.535756,23.7574773 101.720853,23.7574773 C103.518936,23.7595113 105.129888,24.0442756 106.697108,24.6127871 C108.566383,25.3013065 110.152926,26.1952629 111.561493,27.3272009 C112.95277,28.4510028 114.105048,29.7639696 115.087485,31.3698367 C116.070938,32.9919761 116.756407,34.6670003 117.179485,36.4844066 C117.6107,38.5367435 117.842579,40.8870659 117.842579,43.5353737 C117.842579,44.1069363 117.830375,44.6927371 117.811052,45.2937931 C117.80495,45.4432944 117.800881,45.5907616 117.796813,45.7392458 C117.792745,45.7402628 117.789694,45.7402628 117.786643,45.7402628 C117.665618,49.2835441 117.601546,52.7180048 117.601546,56.0314406 L117.599512,79.6292464 L140.992898,79.6292464 L140.992898,45.1697173 C140.992898,44.2920331 141.01629,43.3838384 141.048834,42.4654736 C141.052902,42.4644566 141.05697,42.4644566 141.059004,42.4634396 C141.079345,41.9701871 141.0946,41.4779517 141.124093,40.9735122 C141.157655,40.3521158 141.173927,39.7388556 141.175961,39.1347485 L141.175961,39.0177917 C141.179012,37.7505907 141.105787,36.4976278 140.964422,35.2670393 Z" id="Shape"></path>
        </g>
    </g>
</svg>